<?xml version="1.0" encoding="utf-8"?>
<!-- Generator: Adobe Illustrator 16.0.0, SVG Export Plug-In . SVG Version: 6.00 Build 0)  -->
<!DOCTYPE svg PUBLIC "-//W3C//DTD SVG 1.1//EN" "http://www.w3.org/Graphics/SVG/1.1/DTD/svg11.dtd">
<svg version="1.1" id="Camada_1" xmlns="http://www.w3.org/2000/svg" xmlns:xlink="http://www.w3.org/1999/xlink" x="0px" y="0px"
	 width="270px" height="119.998px" viewBox="0 0 270 119.998" enable-background="new 0 0 270 119.998" xml:space="preserve">
<g>
	<path fill="#FFFFFF" d="M269.287,0.021c-0.26-0.011-0.632-0.021-1.1-0.021c-5.215,0-9.385,2.217-12.52,6.653
		c-3.084,4.355-4.692,10.251-4.82,17.671c0.003,0.002,0.005,0.006,0.008,0.008c-0.006,0.232-0.013,0.465-0.016,0.702
		c-0.255,0.02-0.677,0.065-1.214,0.089c-0.541,0.022-0.947,0.033-1.205,0.033c-0.686,0-1.835-0.055-3.42-0.164v3.314
		c0.548-0.041,1.157-0.08,1.818-0.099c0.794-0.022,2.093-0.044,3.845-0.044v0.433v10.044c0,7.983-0.056,13.881-0.164,17.69
		c-0.092,3.806-0.256,6.7-0.456,8.668c0.725-0.133,1.438-0.258,2.092-0.327c0.659-0.066,1.276-0.101,1.861-0.101
		c0.607,0,1.261,0.045,1.916,0.125c0.656,0.078,1.345,0.191,2.046,0.303c-0.256-2.926-0.455-7.351-0.548-13.251
		c-0.094-5.828-0.152-13.698-0.153-23.584c0.515,0.022,1.275,0.068,2.232,0.09c3.345,0.055,6.801,0.076,7.994,0.098l0.02-1.138
		l0.022-1.479l0.021-0.728c-1.311,0.057-3.614,0.093-4.385,0.117c-0.773,0.022-1.498,0.033-2.128,0.033
		c-0.409,0-1.074-0.024-1.963-0.047c-0.889-0.02-1.567-0.032-2.036-0.032c-0.027-0.297,0.009-0.263-0.017-0.552
		c-0.201-2.232-0.374-4.293-0.497-6.153c-0.115-1.912-0.185-3.422-0.185-4.48c0-2.701,0.642-4.741,1.915-6.079
		c1.263-1.341,3.181-2.018,5.729-2.018c0.934,0,1.835,0.101,2.699,0.281c0.868,0.181,1.684,0.44,2.433,0.778L270,0.089
		C269.788,0.066,269.543,0.033,269.287,0.021"/>
	<path fill="#FFFFFF" d="M237.5,25.001c-0.544,0.098-1.146,0.21-1.784,0.293c-0.634,0.073-1.323,0.121-2.061,0.121
		c-0.703,0-1.383-0.034-2.007-0.107c-0.612-0.071-1.201-0.185-1.734-0.306c0.194,4.125,0.363,10.007,0.488,17.597
		c0.123,7.589,0.19,16.13,0.19,25.6c0,10.603-0.475,17.375-1.937,20.022c-1.49,2.7-2.406,3.617-6.155,4.45l0.312,2.333h0.523
		c5.668-0.61,8.268-2.513,10.558-5.649c2.28-3.126,3.424-8.469,3.424-15.985c0-3.415-0.022-9.356-0.046-17.798
		c-0.022-8.445-0.033-15.194-0.033-20.231c0-1.528,0.022-3.162,0.068-4.896C237.341,28.722,237.408,26.907,237.5,25.001"/>
	<path fill="#FFFFFF" d="M192.5,24.984c-0.312,0.076-0.666,0.132-1.049,0.172c-0.382,0.028-0.801,0.051-1.25,0.051
		c-0.139,0-0.344,0.003-0.506,0c0-0.002-0.002-0.003-0.002-0.005c-0.08,0.002-0.159,0.005-0.242,0.005
		c-0.421,0-0.822-0.023-1.203-0.057c-0.383-0.034-0.748-0.091-1.091-0.167c0.181,2.699,0.319,5.595,0.411,8.674
		c0.081,3.082,0.129,6.394,0.129,9.931c0,4.232-0.126,7.29-0.377,9.153c-0.245,1.86-0.671,3.38-1.269,4.539
		c-0.733,1.406-1.73,2.483-2.98,3.215c-1.149,0.673-2.473,1.041-3.956,1.096c-1.56-0.057-2.903-0.491-4.017-1.297
		c-1.198-0.869-2.047-2.104-2.538-3.687c-0.331-1.049-0.57-2.274-0.713-3.657c-0.138-1.386-0.21-3.74-0.21-7.051
		c0-4.101,0.062-7.861,0.168-11.27c0.107-3.412,0.293-6.625,0.535-9.646c-0.57,0.076-1.17,0.132-1.787,0.172
		c-0.609,0.028-1.282,0.051-1.998,0.051c-0.73,0-1.437-0.023-2.094-0.057c-0.659-0.034-1.283-0.091-1.864-0.167
		c0.144,1.894,0.266,3.956,0.335,6.176c0.071,2.214,0.113,5.137,0.113,8.749v5.063c0,4.412,0.159,7.652,0.463,9.691
		c0.306,2.041,0.832,3.701,1.561,4.972c0.99,1.741,2.476,3.088,4.436,4.025c1.966,0.925,4.299,1.396,6.995,1.396
		c2.459,0,4.594-0.417,6.403-1.249c1.802-0.828,3.293-2.093,4.465-3.777c1.005-1.419,1.73-3.177,2.161-5.255
		c0.433-2.079,0.653-5.004,0.653-8.765c0-0.995-0.016-2.445-0.049-4.337c-0.028-1.885-0.048-3.284-0.048-4.181
		c0-1.532,0.038-3.35,0.103-5.436C192.257,29.971,192.363,27.607,192.5,24.984"/>
	<path fill-rule="evenodd" clip-rule="evenodd" fill="#FFFFFF" d="M253.102,111.065h0.043c0.589,0.019,1.039,0.026,1.341,0.026
		c0.163,0,0.336-0.002,0.519-0.002c0.187-0.002,0.474-0.009,0.862-0.024c-0.202-0.562-0.414-1.107-0.639-1.646
		c-0.227-0.539-0.463-1.068-0.709-1.584c-0.259,0.503-0.506,1.022-0.741,1.559c-0.233,0.535-0.46,1.092-0.678,1.671H253.102
		L253.102,111.065z M250.164,114.828c0.754-1.508,1.493-3.076,2.211-4.701c0.721-1.625,1.431-3.33,2.126-5.105
		c0.112,0.016,0.219,0.025,0.32,0.032c0.099,0.007,0.202,0.011,0.302,0.011c0.098,0,0.191-0.004,0.282-0.009
		c0.095-0.009,0.188-0.018,0.274-0.034c0.623,1.559,1.298,3.159,2.017,4.791c0.718,1.631,1.485,3.305,2.304,5.015
		c-0.196-0.017-0.407-0.034-0.625-0.039c-0.22-0.009-0.458-0.014-0.708-0.014c-0.253,0-0.491,0.005-0.707,0.011
		c-0.215,0.008-0.43,0.025-0.637,0.042c-0.12-0.349-0.256-0.73-0.399-1.124c-0.142-0.396-0.354-0.965-0.627-1.709
		c-0.211-0.011-0.443-0.019-0.695-0.022c-0.247-0.003-0.621-0.008-1.116-0.008c-0.5,0-0.875,0.005-1.125,0.008
		s-0.481,0.011-0.696,0.022c-0.295,0.797-0.522,1.394-0.676,1.78c-0.153,0.392-0.295,0.744-0.422,1.053
		c-0.145-0.017-0.272-0.034-0.375-0.039c-0.103-0.009-0.202-0.014-0.294-0.014c-0.138,0-0.356,0.015-0.65,0.049
		c-0.034,0.002-0.06,0.004-0.081,0.004H250.164L250.164,114.828z M240.152,114.828c0.067-0.649,0.116-1.349,0.148-2.097
		c0.031-0.747,0.05-1.65,0.05-2.706c0-0.993-0.016-1.881-0.05-2.661c-0.03-0.779-0.081-1.506-0.148-2.175
		c0.145,0.018,0.288,0.034,0.43,0.039c0.142,0.01,0.279,0.015,0.404,0.015c0.054,0,0.39-0.01,1.006-0.025
		c0.612-0.021,1.2-0.029,1.763-0.029c1.255,0,2.194,0.2,2.81,0.598c0.619,0.4,0.926,1.007,0.926,1.822
		c0,0.643-0.211,1.171-0.632,1.583c-0.423,0.414-1.05,0.713-1.883,0.889l3.493,4.747c-0.246-0.022-0.488-0.039-0.718-0.05
		c-0.229-0.01-0.451-0.018-0.664-0.018c-0.204,0-0.425,0.005-0.651,0.015c-0.225,0.011-0.469,0.031-0.727,0.053
		c-0.449-0.73-0.934-1.474-1.456-2.235c-0.521-0.762-1.078-1.546-1.666-2.348v1.907c0,0.407,0.011,0.836,0.031,1.275
		c0.02,0.438,0.05,0.907,0.089,1.401c-0.221-0.022-0.439-0.039-0.645-0.05c-0.206-0.01-0.409-0.018-0.606-0.018
		c-0.193,0-0.397,0.005-0.607,0.015C240.636,114.786,240.401,114.806,240.152,114.828 M242.572,109.813h0.059
		c0.853,0,1.476-0.167,1.858-0.498c0.389-0.328,0.583-0.851,0.583-1.572c0-0.604-0.171-1.051-0.508-1.329
		c-0.338-0.28-0.876-0.419-1.605-0.419c-0.037,0-0.091,0.003-0.164,0.007c-0.072,0.003-0.131,0.006-0.17,0.006
		c-0.021,0.289-0.036,0.577-0.043,0.863c-0.006,0.285-0.01,0.569-0.01,0.845V109.813L242.572,109.813z M224.774,110.162
		c0-1.605,0.535-2.862,1.602-3.772c1.064-0.911,2.544-1.368,4.433-1.368c1.82,0,3.226,0.434,4.216,1.3
		c0.99,0.867,1.486,2.105,1.486,3.703c0,1.512-0.535,2.725-1.599,3.63c-1.066,0.904-2.492,1.36-4.267,1.36
		c-1.887,0-3.335-0.419-4.35-1.259c-1.01-0.841-1.521-2.037-1.521-3.592V110.162L224.774,110.162z M227.268,110.023
		c0,1.312,0.299,2.342,0.894,3.078c0.596,0.738,1.424,1.106,2.479,1.106c1.043,0,1.86-0.371,2.458-1.112
		c0.597-0.743,0.896-1.768,0.896-3.072c0-1.319-0.299-2.354-0.896-3.098c-0.598-0.744-1.415-1.12-2.458-1.12
		c-1.052,0-1.878,0.376-2.476,1.124C227.568,107.676,227.268,108.709,227.268,110.023 M212.626,114.947
		c0.08-0.959,0.145-2.018,0.183-3.176c0.042-1.155,0.063-2.582,0.063-4.271c0-1.339-0.017-2.63-0.047-3.872
		c-0.031-1.24-0.077-2.446-0.139-3.615c0.598,0.028,1.227,0.052,1.885,0.063c0.661,0.015,1.379,0.023,2.149,0.023
		c0.76,0,1.477-0.008,2.142-0.02c0.667-0.014,1.313-0.038,1.931-0.066c-0.021,0.151-0.038,0.298-0.045,0.437
		c-0.013,0.146-0.019,0.299-0.019,0.464c0,0.153,0.006,0.31,0.015,0.463c0.011,0.153,0.028,0.318,0.049,0.496
		c-0.722-0.076-1.406-0.138-2.042-0.172c-0.639-0.042-1.252-0.063-1.826-0.063c-0.095,0-0.243,0.005-0.438,0.01
		c-0.197,0.009-0.338,0.012-0.418,0.012c-0.043,0.255-0.073,0.562-0.089,0.917c-0.017,0.356-0.024,0.959-0.024,1.793v2.004
		c0.857-0.018,1.677-0.052,2.453-0.093c0.776-0.04,1.516-0.097,2.21-0.16c-0.013,0.149-0.028,0.304-0.036,0.454
		c-0.011,0.153-0.016,0.312-0.016,0.465c0,0.156,0.005,0.313,0.013,0.465c0.011,0.15,0.028,0.302,0.047,0.441
		c-0.686-0.058-1.413-0.102-2.175-0.137c-0.764-0.037-1.579-0.064-2.446-0.078l-0.01,3.814c0,0.803,0.014,1.467,0.043,1.983
		c0.027,0.519,0.068,0.994,0.124,1.419c-0.328-0.033-0.639-0.06-0.926-0.077c-0.29-0.019-0.572-0.027-0.84-0.027
		c-0.275,0-0.556,0.007-0.843,0.023C213.265,114.885,212.953,114.914,212.626,114.947 M191.542,114.836
		c0.066-0.503,0.113-1.082,0.141-1.732c0.027-0.653,0.044-1.706,0.044-3.16v-0.721c0-1.083-0.017-1.93-0.044-2.542
		c-0.028-0.614-0.075-1.164-0.141-1.649c0.489,0.018,0.992,0.032,1.51,0.04c0.518,0.011,1.061,0.014,1.626,0.014
		c0.567,0,1.089-0.003,1.558-0.012c0.471-0.01,0.916-0.024,1.335-0.042c-0.025,0.159-0.044,0.284-0.049,0.371
		c-0.01,0.089-0.013,0.173-0.013,0.246c0,0.074,0.003,0.153,0.011,0.236c0.007,0.081,0.026,0.202,0.051,0.367
		c-0.779-0.046-1.455-0.083-2.023-0.111c-0.568-0.023-1.066-0.039-1.487-0.045c-0.022,0.172-0.034,0.36-0.041,0.554
		c-0.007,0.196-0.013,0.487-0.013,0.871v0.685l0.007,0.975c0.331-0.007,0.895-0.024,1.691-0.051
		c0.796-0.027,1.397-0.049,1.804-0.061c-0.026,0.143-0.042,0.261-0.051,0.346c-0.006,0.087-0.013,0.173-0.013,0.257
		c0,0.127,0.02,0.318,0.055,0.574c0.003,0.018,0.009,0.032,0.009,0.039c-0.954-0.049-1.686-0.084-2.186-0.104
		c-0.499-0.015-0.941-0.026-1.316-0.026v1.723c0,0.617,0.007,1.049,0.013,1.297c0.01,0.245,0.028,0.455,0.049,0.624
		c0.475-0.016,1.008-0.041,1.587-0.074c0.582-0.034,1.222-0.083,1.915-0.139c-0.017,0.095-0.03,0.189-0.037,0.28
		c-0.007,0.09-0.012,0.188-0.012,0.282c0,0.099,0.009,0.23,0.024,0.391c0.015,0.16,0.025,0.26,0.025,0.297
		c-1.046-0.025-1.845-0.047-2.404-0.054c-0.562-0.01-1.013-0.015-1.359-0.015c-0.466,0-0.885,0.005-1.247,0.015
		C192.198,114.792,191.858,114.813,191.542,114.836 M177.54,114.836c0.054-0.416,0.097-0.887,0.125-1.416
		c0.03-0.526,0.043-1.263,0.043-2.201v-1.275v-0.779c0-1.055-0.013-1.893-0.043-2.496c-0.028-0.605-0.071-1.152-0.125-1.637
		c0.197,0.018,0.394,0.032,0.588,0.04c0.195,0.011,0.404,0.014,0.624,0.014c0.328,0,0.85-0.008,1.557-0.028
		c0.711-0.018,1.256-0.026,1.632-0.026c1.044,0,1.867,0.071,2.471,0.211c0.607,0.14,1.134,0.374,1.58,0.692
		c0.558,0.405,0.989,0.938,1.292,1.587c0.304,0.653,0.456,1.385,0.456,2.192c0,1.705-0.538,2.987-1.61,3.84
		c-1.072,0.853-2.679,1.282-4.816,1.282c-0.38,0-0.868-0.008-1.458-0.019c-0.586-0.017-0.988-0.025-1.196-0.025
		c-0.203,0-0.486,0.012-0.848,0.032C177.691,114.828,177.599,114.833,177.54,114.836 M180.05,113.96
		c0.192,0.028,0.38,0.052,0.558,0.062c0.181,0.013,0.352,0.022,0.509,0.022c1.364,0,2.387-0.353,3.075-1.051
		c0.685-0.705,1.029-1.76,1.029-3.154c0-1.406-0.319-2.423-0.956-3.042c-0.639-0.619-1.683-0.932-3.132-0.932
		c-0.097,0-0.31,0.005-0.638,0.013c-0.174,0.007-0.312,0.012-0.414,0.018c-0.02,0.63-0.036,1.32-0.044,2.057
		c-0.012,0.735-0.019,1.55-0.019,2.445c0,0.955,0.003,1.681,0.007,2.175C180.03,113.069,180.04,113.532,180.05,113.96
		 M157.206,113.745c0.151,0.002,0.317,0.007,0.493,0.007c0.178,0.002,0.446,0.006,0.802,0.006c0.788,0,1.584-0.016,2.382-0.041
		c0.797-0.028,1.607-0.073,2.424-0.127c-0.019,0.162-0.034,0.288-0.04,0.37c-0.007,0.084-0.013,0.169-0.013,0.246
		c0,0.133,0.019,0.333,0.053,0.589v0.041c-0.681-0.032-1.4-0.058-2.151-0.072c-0.753-0.018-1.55-0.025-2.388-0.025
		c-0.84,0-1.659,0.007-2.456,0.025c-0.798,0.018-1.58,0.044-2.342,0.072v-0.316c1.068-1.476,2.078-2.919,3.025-4.323
		c0.947-1.406,1.841-2.781,2.674-4.116c-0.254-0.012-0.519-0.024-0.79-0.028c-0.273-0.009-0.557-0.013-0.851-0.013
		c-0.568,0-1.157,0.013-1.758,0.036c-0.601,0.022-1.215,0.058-1.841,0.107c0.008-0.102,0.02-0.209,0.031-0.31
		c0.011-0.103,0.016-0.202,0.016-0.296c0-0.091-0.005-0.185-0.016-0.28c-0.011-0.095-0.023-0.182-0.031-0.265
		c0.859,0.035,1.628,0.064,2.302,0.081c0.677,0.011,1.313,0.024,1.91,0.024c0.598,0,1.237-0.013,1.91-0.024
		c0.678-0.017,1.446-0.046,2.306-0.081v0.259c-0.962,1.368-1.915,2.754-2.854,4.162C159.063,110.857,158.132,112.29,157.206,113.745
		 M147.791,114.836c0.056-0.63,0.1-1.311,0.126-2.039c0.029-0.728,0.043-1.681,0.043-2.853c0-1.134-0.014-2.088-0.043-2.853
		c-0.026-0.767-0.07-1.456-0.126-2.059c0.226,0.026,0.45,0.052,0.674,0.065c0.227,0.018,0.455,0.024,0.682,0.024
		c0.229,0,0.457-0.006,0.679-0.024c0.225-0.013,0.446-0.039,0.666-0.065c-0.062,0.61-0.106,1.305-0.131,2.074
		c-0.031,0.771-0.043,1.72-0.043,2.838c0,1.22,0.012,2.192,0.039,2.913c0.029,0.72,0.072,1.383,0.127,1.979
		c-0.249-0.023-0.483-0.041-0.704-0.05c-0.223-0.013-0.433-0.019-0.633-0.019c-0.205,0-0.423,0.005-0.643,0.015
		C148.283,114.792,148.044,114.813,147.791,114.836 M134.026,105.032c0.197,0.018,0.409,0.032,0.631,0.04
		c0.223,0.011,0.464,0.014,0.711,0.014c0.244,0,0.471-0.003,0.678-0.012c0.21-0.01,0.411-0.024,0.603-0.042
		c-0.079,0.751-0.142,1.554-0.179,2.404c-0.035,0.852-0.057,1.79-0.057,2.81c0,0.828,0.026,1.416,0.071,1.759
		c0.049,0.344,0.131,0.652,0.243,0.914c0.166,0.394,0.454,0.701,0.86,0.917c0.405,0.218,0.902,0.328,1.483,0.328
		c0.556,0,1.051-0.093,1.475-0.276c0.423-0.184,0.763-0.45,1.01-0.802c0.203-0.289,0.348-0.669,0.429-1.132
		c0.086-0.465,0.13-1.226,0.13-2.282c0-0.885-0.017-1.709-0.046-2.478c-0.031-0.767-0.077-1.49-0.137-2.162
		c0.115,0.018,0.239,0.032,0.369,0.04c0.13,0.011,0.267,0.014,0.407,0.014c0.153,0,0.294-0.003,0.424-0.012
		c0.131-0.01,0.25-0.024,0.355-0.042c-0.044,0.654-0.081,1.245-0.105,1.765c-0.022,0.518-0.034,0.971-0.034,1.353
		c0,0.225,0.007,0.574,0.016,1.044c0.011,0.471,0.018,0.831,0.018,1.079c0,0.94-0.077,1.67-0.221,2.188
		c-0.147,0.519-0.394,0.957-0.733,1.31c-0.4,0.418-0.906,0.736-1.516,0.943c-0.613,0.206-1.338,0.311-2.172,0.311
		c-0.914,0-1.703-0.118-2.37-0.35c-0.664-0.231-1.17-0.567-1.505-0.999c-0.248-0.32-0.426-0.734-0.529-1.245
		c-0.104-0.509-0.156-1.315-0.156-2.417v-1.262c0-0.899-0.016-1.629-0.038-2.18C134.117,106.018,134.075,105.503,134.026,105.032
		 M122.552,119.931l-0.17-0.975h0.132c0.557,0,1.016-0.084,1.376-0.249c0.358-0.164,0.643-0.417,0.842-0.743
		c0.176-0.31,0.308-0.836,0.389-1.572c0.075-0.735,0.116-1.98,0.116-3.723c0-2.007-0.024-4.072-0.066-6.189
		c-0.045-2.123-0.111-4.289-0.191-6.508c0.267,0.03,0.549,0.06,0.837,0.069c0.296,0.016,0.607,0.026,0.938,0.026
		c0.333,0,0.649-0.01,0.941-0.023c0.294-0.012,0.574-0.042,0.831-0.072c-0.067,1.231-0.119,2.541-0.154,3.929
		c-0.033,1.393-0.052,2.875-0.052,4.449c0,0.629,0.011,1.481,0.031,2.547c0.018,1.062,0.028,1.813,0.028,2.246
		c0,1.48-0.11,2.621-0.332,3.418c-0.223,0.795-0.6,1.465-1.119,2.015c-0.422,0.439-0.954,0.785-1.594,1.041
		c-0.644,0.254-1.328,0.381-2.049,0.381c-0.066,0-0.166-0.006-0.294-0.017c-0.125-0.01-0.274-0.03-0.436-0.052L122.552,119.931
		L122.552,119.931z M103.608,114.947c0.066-0.501,0.113-1.075,0.142-1.722c0.027-0.65,0.042-1.7,0.042-3.146v-0.718
		c0-1.075-0.015-1.921-0.042-2.53c-0.029-0.608-0.076-1.156-0.142-1.64c0.489,0.019,0.993,0.034,1.509,0.042
		c0.52,0.01,1.062,0.013,1.626,0.013c0.569,0,1.089-0.003,1.56-0.013c0.47-0.008,0.916-0.023,1.331-0.042
		c-0.023,0.159-0.04,0.283-0.047,0.371c-0.008,0.088-0.012,0.17-0.012,0.243c0,0.075,0.004,0.155,0.009,0.235
		c0.01,0.081,0.027,0.203,0.05,0.367c-0.776-0.046-1.452-0.083-2.02-0.11c-0.569-0.026-1.064-0.04-1.488-0.045
		c-0.022,0.171-0.033,0.358-0.04,0.55c-0.009,0.194-0.013,0.485-0.013,0.867v0.682l0.005,0.968c0.333-0.007,0.897-0.023,1.694-0.051
		c0.793-0.025,1.396-0.047,1.803-0.059c-0.024,0.145-0.043,0.258-0.051,0.345c-0.008,0.086-0.01,0.172-0.01,0.256
		c0,0.126,0.017,0.314,0.052,0.57c0.005,0.017,0.009,0.033,0.009,0.039c-0.955-0.047-1.685-0.083-2.185-0.103
		c-0.5-0.018-0.941-0.027-1.317-0.027v1.714c0,0.615,0.005,1.044,0.016,1.291c0.009,0.245,0.026,0.453,0.046,0.621
		c0.476-0.014,1.009-0.039,1.589-0.074c0.579-0.034,1.219-0.081,1.91-0.138c-0.014,0.093-0.028,0.189-0.032,0.278
		c-0.008,0.092-0.013,0.186-0.013,0.282c0,0.096,0.009,0.228,0.022,0.387c0.017,0.161,0.023,0.259,0.023,0.297
		c-1.041-0.027-1.844-0.047-2.403-0.055s-1.011-0.015-1.357-0.015c-0.466,0-0.884,0.007-1.247,0.017
		C104.264,114.904,103.924,114.926,103.608,114.947 M89.606,114.947c0.055-0.413,0.097-0.883,0.125-1.408
		c0.03-0.524,0.044-1.257,0.044-2.191v-1.269v-0.773c0-1.053-0.014-1.886-0.044-2.484c-0.028-0.603-0.07-1.147-0.125-1.631
		c0.198,0.019,0.394,0.034,0.588,0.042c0.195,0.01,0.405,0.013,0.624,0.013c0.329,0,0.85-0.008,1.559-0.027
		c0.711-0.018,1.254-0.028,1.631-0.028c1.042,0,1.868,0.073,2.473,0.21c0.605,0.139,1.132,0.372,1.579,0.692
		c0.56,0.402,0.991,0.932,1.291,1.577c0.305,0.649,0.456,1.377,0.456,2.181c0,1.696-0.536,2.971-1.609,3.82
		c-1.073,0.849-2.678,1.276-4.813,1.276c-0.383,0-0.87-0.008-1.459-0.018c-0.588-0.018-0.99-0.025-1.196-0.025
		c-0.205,0-0.485,0.01-0.848,0.031C89.758,114.939,89.667,114.944,89.606,114.947 M92.116,114.075
		c0.191,0.029,0.381,0.05,0.562,0.063c0.18,0.012,0.349,0.02,0.508,0.02c1.362,0,2.387-0.351,3.073-1.045
		c0.686-0.7,1.032-1.75,1.032-3.137c0-1.401-0.322-2.411-0.959-3.027c-0.638-0.618-1.681-0.929-3.133-0.929
		c-0.094,0-0.311,0.005-0.638,0.015c-0.173,0.005-0.31,0.012-0.412,0.018c-0.022,0.628-0.036,1.313-0.044,2.045
		c-0.01,0.731-0.017,1.543-0.017,2.435c0,0.948,0.001,1.671,0.007,2.161C92.097,113.189,92.106,113.648,92.116,114.075
		 M69.331,114.947c0.063-0.653,0.109-1.365,0.138-2.125c0.029-0.761,0.044-1.677,0.044-2.743c0-1.022-0.015-1.931-0.042-2.725
		c-0.031-0.795-0.077-1.517-0.14-2.163c0.219,0.028,0.437,0.052,0.655,0.067c0.22,0.017,0.438,0.024,0.656,0.024
		c0.221,0,0.44-0.007,0.658-0.024c0.218-0.015,0.438-0.039,0.657-0.067c-0.066,0.662-0.117,1.39-0.146,2.182s-0.047,1.7-0.047,2.706
		c0,0.986,0.01,1.77,0.026,2.352c0.017,0.579,0.044,1.081,0.082,1.498c0.637-0.014,1.251-0.037,1.836-0.068
		c0.584-0.033,1.16-0.076,1.725-0.129c-0.017,0.094-0.029,0.194-0.036,0.29c-0.007,0.101-0.012,0.206-0.012,0.314
		c0,0.095,0.005,0.194,0.01,0.296c0.009,0.097,0.021,0.204,0.038,0.315c-0.727-0.038-1.348-0.06-1.855-0.075
		c-0.505-0.014-0.97-0.021-1.381-0.021c-0.367,0-0.779,0.007-1.226,0.019C70.524,114.887,69.977,114.909,69.331,114.947
		 M59.435,111.135h0.043c0.592,0.017,1.045,0.025,1.352,0.025c0.161,0,0.336-0.001,0.521-0.001c0.188-0.002,0.477-0.013,0.865-0.024
		c-0.203-0.57-0.419-1.123-0.644-1.671c-0.227-0.545-0.465-1.081-0.713-1.601c-0.26,0.506-0.508,1.034-0.743,1.575
		c-0.236,0.543-0.466,1.109-0.684,1.697H59.435L59.435,111.135z M56.48,114.947c0.758-1.528,1.502-3.118,2.223-4.763
		c0.726-1.648,1.441-3.375,2.141-5.174c0.111,0.015,0.219,0.026,0.321,0.032c0.099,0.007,0.206,0.012,0.307,0.012
		c0.094,0,0.189-0.005,0.281-0.01c0.095-0.008,0.188-0.019,0.275-0.034c0.628,1.579,1.306,3.2,2.029,4.853
		c0.722,1.655,1.494,3.352,2.319,5.084c-0.198-0.018-0.41-0.035-0.628-0.04c-0.222-0.01-0.462-0.015-0.716-0.015
		c-0.253,0-0.49,0.005-0.708,0.012c-0.217,0.008-0.433,0.025-0.642,0.043c-0.12-0.355-0.256-0.74-0.4-1.14
		c-0.146-0.402-0.355-0.976-0.63-1.731c-0.212-0.01-0.445-0.019-0.698-0.022c-0.251-0.005-0.627-0.008-1.123-0.008
		c-0.505,0-0.882,0.003-1.134,0.008c-0.251,0.003-0.484,0.012-0.697,0.022c-0.303,0.81-0.529,1.413-0.683,1.806
		c-0.154,0.394-0.298,0.752-0.426,1.065c-0.144-0.018-0.274-0.035-0.376-0.04c-0.104-0.01-0.203-0.015-0.294-0.015
		c-0.142,0-0.363,0.017-0.657,0.049C56.53,114.945,56.5,114.947,56.48,114.947L56.48,114.947L56.48,114.947z M46.405,114.947
		c0.067-0.658,0.116-1.366,0.149-2.125c0.03-0.756,0.049-1.672,0.049-2.743c0-1.005-0.017-1.907-0.048-2.696
		c-0.032-0.791-0.083-1.527-0.15-2.204c0.147,0.018,0.291,0.034,0.432,0.04c0.144,0.009,0.282,0.014,0.407,0.014
		c0.054,0,0.394-0.008,1.012-0.026c0.617-0.019,1.209-0.028,1.773-0.028c1.264,0,2.208,0.202,2.83,0.606
		c0.622,0.405,0.931,1.02,0.931,1.848c0,0.649-0.214,1.186-0.636,1.603c-0.424,0.419-1.058,0.722-1.894,0.901l3.514,4.81
		c-0.25-0.021-0.49-0.04-0.723-0.05c-0.231-0.01-0.455-0.02-0.667-0.02c-0.207,0-0.428,0.007-0.654,0.017
		c-0.23,0.01-0.474,0.032-0.733,0.053c-0.453-0.74-0.941-1.494-1.465-2.264c-0.523-0.773-1.084-1.569-1.676-2.381v1.933
		c0,0.414,0.01,0.846,0.03,1.29c0.02,0.445,0.051,0.921,0.09,1.422c-0.221-0.021-0.442-0.04-0.648-0.05
		c-0.207-0.01-0.411-0.02-0.611-0.02c-0.193,0-0.399,0.007-0.612,0.017S46.656,114.926,46.405,114.947 M48.838,109.863h0.061
		c0.86,0,1.486-0.168,1.872-0.502c0.39-0.335,0.586-0.863,0.586-1.593c0-0.613-0.171-1.065-0.512-1.348
		c-0.341-0.282-0.881-0.425-1.617-0.425c-0.037,0-0.091,0.003-0.164,0.008c-0.073,0.003-0.133,0.007-0.171,0.007
		c-0.021,0.294-0.035,0.584-0.042,0.875c-0.007,0.288-0.014,0.576-0.014,0.855V109.863L48.838,109.863z M36.591,114.947
		c0.066-0.501,0.113-1.075,0.14-1.722c0.03-0.65,0.042-1.7,0.042-3.146v-0.718c0-1.075-0.012-1.921-0.042-2.53
		c-0.027-0.608-0.074-1.156-0.14-1.64c0.488,0.019,0.992,0.034,1.508,0.042c0.519,0.01,1.061,0.013,1.627,0.013
		c0.567,0,1.088-0.003,1.561-0.013c0.468-0.008,0.914-0.023,1.332-0.042c-0.025,0.159-0.043,0.283-0.05,0.371
		c-0.007,0.088-0.01,0.17-0.01,0.243c0,0.075,0.002,0.155,0.008,0.235c0.008,0.081,0.027,0.203,0.052,0.367
		c-0.778-0.046-1.454-0.083-2.023-0.11c-0.567-0.026-1.065-0.04-1.487-0.045c-0.021,0.171-0.035,0.358-0.042,0.55
		c-0.007,0.194-0.012,0.485-0.012,0.867v0.682l0.005,0.968c0.333-0.007,0.895-0.023,1.691-0.051c0.797-0.025,1.4-0.047,1.808-0.059
		c-0.026,0.145-0.045,0.258-0.052,0.345c-0.009,0.086-0.013,0.172-0.013,0.256c0,0.126,0.019,0.314,0.054,0.57
		c0.005,0.017,0.01,0.033,0.01,0.039c-0.958-0.047-1.689-0.083-2.187-0.103c-0.5-0.018-0.942-0.027-1.317-0.027v1.714
		c0,0.615,0.005,1.044,0.012,1.291c0.012,0.245,0.029,0.453,0.048,0.621c0.479-0.014,1.009-0.039,1.59-0.074
		c0.583-0.034,1.22-0.081,1.914-0.138c-0.017,0.093-0.03,0.189-0.037,0.278c-0.007,0.092-0.012,0.186-0.012,0.282
		c0,0.096,0.01,0.228,0.023,0.387c0.016,0.161,0.025,0.259,0.025,0.297c-1.045-0.027-1.848-0.047-2.405-0.055
		c-0.559-0.008-1.011-0.015-1.357-0.015c-0.465,0-0.886,0.007-1.246,0.017C37.249,114.904,36.905,114.926,36.591,114.947
		 M22.589,114.947c0.054-0.413,0.096-0.883,0.123-1.408c0.03-0.524,0.042-1.257,0.042-2.191v-1.269v-0.773
		c0-1.053-0.012-1.886-0.042-2.484c-0.027-0.603-0.069-1.147-0.123-1.631c0.197,0.019,0.392,0.034,0.587,0.042
		c0.194,0.01,0.404,0.013,0.625,0.013c0.328,0,0.849-0.008,1.559-0.027c0.709-0.018,1.253-0.028,1.63-0.028
		c1.042,0,1.866,0.073,2.47,0.21c0.606,0.139,1.135,0.372,1.58,0.692c0.557,0.402,0.991,0.932,1.293,1.577
		c0.304,0.649,0.456,1.377,0.456,2.181c0,1.696-0.539,2.971-1.61,3.82c-1.073,0.849-2.68,1.276-4.816,1.276
		c-0.381,0-0.868-0.008-1.456-0.018c-0.588-0.018-0.991-0.025-1.197-0.025c-0.203,0-0.484,0.01-0.847,0.031
		C22.741,114.939,22.648,114.944,22.589,114.947 M25.099,114.075c0.19,0.029,0.38,0.05,0.56,0.063c0.179,0.012,0.35,0.02,0.508,0.02
		c1.361,0,2.388-0.351,3.075-1.045c0.684-0.7,1.029-1.75,1.029-3.137c0-1.401-0.32-2.411-0.958-3.027
		c-0.635-0.618-1.683-0.929-3.131-0.929c-0.096,0-0.309,0.005-0.64,0.015c-0.173,0.005-0.31,0.012-0.409,0.018
		c-0.021,0.628-0.039,1.313-0.045,2.045c-0.01,0.731-0.017,1.543-0.017,2.435c0,0.948,0.002,1.671,0.007,2.161
		C25.08,113.189,25.089,113.648,25.099,114.075 M12.76,114.947c0.064-0.501,0.11-1.075,0.14-1.722c0.029-0.65,0.04-1.7,0.04-3.146
		v-0.718c0-1.075-0.011-1.921-0.04-2.53c-0.03-0.608-0.076-1.156-0.14-1.64c0.484,0.019,0.989,0.034,1.507,0.042
		c0.52,0.01,1.062,0.013,1.626,0.013c0.566,0,1.089-0.003,1.558-0.013c0.472-0.008,0.916-0.023,1.334-0.042
		c-0.024,0.159-0.042,0.283-0.049,0.371c-0.009,0.088-0.012,0.17-0.012,0.243c0,0.075,0.003,0.155,0.01,0.235
		c0.009,0.081,0.026,0.203,0.051,0.367c-0.777-0.046-1.454-0.083-2.022-0.11c-0.569-0.026-1.065-0.04-1.488-0.045
		c-0.019,0.171-0.034,0.358-0.041,0.55c-0.007,0.194-0.012,0.485-0.012,0.867v0.682l0.006,0.968
		c0.331-0.007,0.895-0.023,1.689-0.051c0.798-0.025,1.402-0.047,1.806-0.059c-0.024,0.145-0.044,0.258-0.052,0.345
		c-0.007,0.086-0.01,0.172-0.01,0.256c0,0.126,0.017,0.314,0.054,0.57c0.005,0.017,0.008,0.033,0.008,0.039
		c-0.956-0.047-1.687-0.083-2.186-0.103c-0.499-0.018-0.94-0.027-1.315-0.027v1.714c0,0.615,0.006,1.044,0.014,1.291
		c0.011,0.245,0.027,0.453,0.047,0.621c0.478-0.014,1.008-0.039,1.589-0.074c0.58-0.034,1.22-0.081,1.912-0.138
		c-0.015,0.093-0.029,0.189-0.034,0.278c-0.008,0.092-0.015,0.186-0.015,0.282c0,0.096,0.012,0.228,0.024,0.387
		c0.015,0.161,0.024,0.259,0.024,0.297c-1.043-0.027-1.845-0.047-2.402-0.055c-0.561-0.008-1.014-0.015-1.359-0.015
		c-0.467,0-0.886,0.007-1.245,0.017C13.414,114.904,13.073,114.926,12.76,114.947 M0,114.947c0.081-0.957,0.144-2.014,0.183-3.169
		c0.042-1.152,0.064-2.577,0.064-4.263c0-1.334-0.017-2.625-0.049-3.864c-0.028-1.238-0.076-2.441-0.136-3.607
		c0.596,0.028,1.226,0.054,1.885,0.062c0.657,0.015,1.378,0.026,2.146,0.026c0.762,0,1.479-0.011,2.143-0.022
		c0.668-0.012,1.312-0.038,1.931-0.066c-0.02,0.149-0.037,0.297-0.046,0.437c-0.01,0.145-0.015,0.299-0.015,0.461
		c0,0.154,0.004,0.311,0.011,0.463c0.013,0.153,0.029,0.318,0.049,0.495c-0.721-0.076-1.405-0.136-2.041-0.172
		c-0.64-0.042-1.252-0.063-1.828-0.063c-0.094,0-0.244,0.007-0.437,0.012c-0.198,0.007-0.337,0.011-0.418,0.011
		c-0.042,0.254-0.071,0.56-0.087,0.915c-0.019,0.355-0.025,0.956-0.025,1.789v2.001c0.858-0.019,1.677-0.054,2.453-0.096
		c0.779-0.038,1.516-0.094,2.211-0.157c-0.014,0.149-0.03,0.302-0.036,0.454c-0.01,0.15-0.016,0.309-0.016,0.463
		c0,0.155,0.006,0.313,0.013,0.464c0.009,0.149,0.028,0.301,0.048,0.44c-0.688-0.055-1.416-0.103-2.177-0.137
		c-0.764-0.038-1.578-0.064-2.446-0.077l-0.007,3.806c0,0.8,0.013,1.462,0.041,1.979c0.027,0.519,0.069,0.991,0.125,1.415
		c-0.329-0.033-0.64-0.06-0.927-0.077c-0.287-0.017-0.57-0.027-0.838-0.027c-0.274,0-0.556,0.007-0.844,0.023
		C0.64,114.887,0.327,114.914,0,114.947"/>
	<path fill-rule="evenodd" clip-rule="evenodd" fill="#FFFFFF" d="M204.097,94.833c0.064-0.495,0.11-1.067,0.138-1.709
		c0.027-0.644,0.041-1.685,0.041-3.117v-0.713c0-1.067-0.014-1.907-0.041-2.51c-0.028-0.603-0.074-1.148-0.138-1.627
		c0.477,0.019,0.969,0.035,1.48,0.041c0.507,0.009,1.04,0.016,1.595,0.016c0.557,0,1.068-0.006,1.528-0.016
		c0.461-0.006,0.898-0.022,1.307-0.041c-0.022,0.155-0.042,0.28-0.047,0.366c-0.006,0.088-0.012,0.169-0.012,0.244
		c0,0.072,0.006,0.15,0.009,0.232c0.008,0.081,0.028,0.203,0.05,0.362c-0.761-0.045-1.425-0.081-1.981-0.106
		c-0.559-0.025-1.047-0.041-1.461-0.046c-0.02,0.171-0.035,0.355-0.04,0.547c-0.008,0.191-0.011,0.48-0.011,0.858v0.675l0.006,0.962
		c0.323-0.007,0.877-0.024,1.659-0.048c0.779-0.026,1.372-0.048,1.769-0.063c-0.025,0.142-0.042,0.257-0.049,0.343
		c-0.008,0.083-0.013,0.171-0.013,0.252c0,0.126,0.018,0.315,0.054,0.567c0.005,0.018,0.008,0.033,0.008,0.04
		c-0.937-0.05-1.654-0.083-2.143-0.104c-0.49-0.02-0.924-0.026-1.291-0.026v1.703c0,0.606,0.006,1.035,0.013,1.278
		c0.011,0.242,0.027,0.447,0.046,0.613c0.468-0.012,0.99-0.039,1.559-0.072c0.568-0.032,1.197-0.08,1.875-0.136
		c-0.015,0.095-0.028,0.187-0.032,0.276c-0.01,0.088-0.012,0.183-0.012,0.282c0,0.092,0.007,0.222,0.022,0.381
		c0.013,0.158,0.022,0.257,0.022,0.294c-1.022-0.027-1.809-0.045-2.356-0.054c-0.55-0.012-0.993-0.016-1.333-0.016
		c-0.456,0-0.866,0.004-1.221,0.018C204.739,94.79,204.404,94.811,204.097,94.833 M187.74,94.833
		c0.054-0.409,0.094-0.876,0.123-1.397c0.027-0.521,0.042-1.247,0.042-2.171v-1.259v-0.769c0-1.045-0.015-1.869-0.042-2.465
		c-0.029-0.598-0.069-1.137-0.123-1.617c0.193,0.019,0.387,0.035,0.577,0.041c0.192,0.009,0.397,0.016,0.612,0.016
		c0.322,0,0.833-0.012,1.529-0.027c0.697-0.02,1.23-0.029,1.6-0.029c1.022,0,1.829,0.072,2.423,0.208
		c0.593,0.138,1.112,0.367,1.549,0.685c0.548,0.403,0.972,0.925,1.267,1.567c0.299,0.641,0.447,1.362,0.447,2.163
		c0,1.681-0.527,2.944-1.578,3.79c-1.054,0.841-2.627,1.264-4.722,1.264c-0.376,0-0.853-0.006-1.43-0.021
		c-0.576-0.013-0.972-0.022-1.174-0.022c-0.2,0-0.477,0.014-0.831,0.03C187.889,94.826,187.799,94.831,187.74,94.833
		 M190.203,93.968c0.189,0.027,0.371,0.048,0.548,0.063c0.176,0.012,0.344,0.02,0.5,0.02c1.336,0,2.34-0.347,3.014-1.041
		c0.673-0.693,1.01-1.731,1.01-3.108c0-1.39-0.315-2.391-0.939-3.003c-0.625-0.612-1.651-0.92-3.072-0.92
		c-0.094,0-0.305,0.005-0.627,0.016c-0.17,0.003-0.305,0.011-0.404,0.012c-0.018,0.628-0.035,1.308-0.044,2.031
		c-0.009,0.727-0.016,1.534-0.016,2.416c0,0.942,0.003,1.659,0.007,2.145C190.184,93.087,190.194,93.545,190.203,93.968
		 M175.412,91.05h0.043c0.582,0.018,1.024,0.024,1.325,0.024c0.159,0,0.33,0,0.51,0c0.185,0,0.469-0.011,0.852-0.024
		c-0.201-0.561-0.412-1.116-0.631-1.656c-0.224-0.543-0.459-1.072-0.702-1.589c-0.254,0.503-0.498,1.026-0.728,1.563
		c-0.23,0.539-0.456,1.1-0.671,1.682H175.412L175.412,91.05z M172.512,94.833c0.746-1.517,1.474-3.093,2.182-4.726
		c0.711-1.637,1.412-3.348,2.099-5.129c0.111,0.013,0.215,0.023,0.315,0.029c0.099,0.006,0.201,0.011,0.302,0.011
		c0.091,0,0.186-0.005,0.276-0.01c0.092-0.006,0.184-0.017,0.267-0.03c0.617,1.566,1.283,3.171,1.993,4.812
		c0.708,1.642,1.466,3.323,2.275,5.043c-0.196-0.019-0.402-0.034-0.616-0.039c-0.218-0.01-0.453-0.015-0.703-0.015
		c-0.248,0-0.483,0.004-0.694,0.011c-0.215,0.009-0.426,0.023-0.628,0.042c-0.121-0.352-0.253-0.732-0.396-1.13
		c-0.142-0.396-0.347-0.972-0.617-1.72c-0.209-0.009-0.437-0.019-0.685-0.022c-0.248-0.003-0.614-0.008-1.102-0.008
		c-0.495,0-0.865,0.005-1.111,0.008c-0.248,0.003-0.476,0.014-0.685,0.022c-0.295,0.802-0.519,1.402-0.669,1.792
		c-0.151,0.394-0.293,0.747-0.418,1.058c-0.142-0.019-0.267-0.034-0.369-0.039c-0.101-0.01-0.199-0.015-0.289-0.015
		c-0.14,0-0.355,0.015-0.644,0.049c-0.032,0.003-0.061,0.004-0.08,0.004H172.512L172.512,94.833z M157.782,94.833
		c0.051-0.409,0.095-0.876,0.123-1.397c0.027-0.521,0.04-1.247,0.04-2.171v-1.259v-0.769c0-1.045-0.013-1.869-0.04-2.465
		c-0.028-0.598-0.072-1.137-0.123-1.617c0.192,0.019,0.387,0.035,0.577,0.041c0.189,0.009,0.395,0.016,0.61,0.016
		c0.322,0,0.835-0.012,1.529-0.027c0.697-0.02,1.231-0.029,1.6-0.029c1.023,0,1.831,0.072,2.423,0.208
		c0.593,0.138,1.112,0.367,1.551,0.685c0.546,0.403,0.972,0.925,1.268,1.567c0.296,0.641,0.445,1.362,0.445,2.163
		c0,1.681-0.527,2.944-1.578,3.79c-1.054,0.841-2.628,1.264-4.724,1.264c-0.374,0-0.851-0.006-1.428-0.021
		c-0.578-0.013-0.972-0.022-1.176-0.022c-0.198,0-0.474,0.014-0.829,0.03C157.93,94.826,157.84,94.831,157.782,94.833
		 M160.245,93.968c0.187,0.027,0.371,0.048,0.546,0.063c0.178,0.012,0.345,0.02,0.501,0.02c1.334,0,2.34-0.347,3.013-1.041
		c0.674-0.693,1.013-1.731,1.013-3.108c0-1.39-0.315-2.391-0.94-3.003c-0.625-0.612-1.651-0.92-3.072-0.92
		c-0.094,0-0.305,0.005-0.628,0.016c-0.17,0.003-0.305,0.011-0.405,0.012c-0.02,0.628-0.035,1.308-0.044,2.031
		c-0.009,0.727-0.015,1.534-0.015,2.416c0,0.942,0.002,1.659,0.006,2.145C160.224,93.087,160.234,93.545,160.245,93.968
		 M148.286,94.833c0.053-0.623,0.095-1.294,0.124-2.01c0.026-0.721,0.04-1.661,0.04-2.816c0-1.12-0.014-2.061-0.04-2.818
		c-0.029-0.759-0.071-1.438-0.124-2.032c0.22,0.029,0.44,0.052,0.659,0.065c0.224,0.015,0.448,0.025,0.671,0.025
		c0.222,0,0.445-0.01,0.663-0.025c0.22-0.013,0.44-0.036,0.654-0.065c-0.06,0.604-0.102,1.288-0.13,2.047
		c-0.027,0.761-0.04,1.695-0.04,2.803c0,1.203,0.013,2.162,0.039,2.871c0.029,0.714,0.071,1.37,0.123,1.956
		c-0.242-0.022-0.477-0.039-0.691-0.052c-0.216-0.013-0.424-0.018-0.618-0.018c-0.203,0-0.417,0.004-0.632,0.018
		C148.768,94.79,148.531,94.811,148.286,94.833 M135.41,94.346c0.087-0.29,0.177-0.598,0.259-0.922
		c0.085-0.322,0.168-0.667,0.242-1.029h0.2c0.137,0.549,0.401,0.977,0.79,1.277c0.392,0.302,0.876,0.454,1.45,0.454
		c0.516,0,0.935-0.131,1.244-0.391c0.311-0.26,0.468-0.605,0.468-1.041c0-0.313-0.098-0.583-0.297-0.807
		c-0.198-0.225-0.689-0.533-1.461-0.923c-1.188-0.584-1.96-1.09-2.314-1.516c-0.355-0.428-0.538-0.958-0.538-1.587
		c0-0.855,0.333-1.552,0.989-2.086c0.656-0.534,1.529-0.797,2.615-0.797c0.473,0,0.91,0.052,1.31,0.159
		c0.403,0.109,0.784,0.278,1.142,0.503c-0.103,0.275-0.201,0.545-0.285,0.808c-0.081,0.26-0.161,0.508-0.225,0.75h-0.163
		c-0.156-0.42-0.418-0.75-0.785-0.992c-0.365-0.245-0.79-0.363-1.275-0.363c-0.45,0-0.809,0.111-1.083,0.339
		c-0.275,0.228-0.412,0.532-0.412,0.904c0,0.313,0.103,0.581,0.306,0.802c0.202,0.219,0.659,0.5,1.363,0.836
		c0.152,0.08,0.379,0.183,0.674,0.313c0.815,0.373,1.338,0.667,1.564,0.875c0.27,0.264,0.476,0.554,0.608,0.867
		c0.132,0.312,0.2,0.667,0.2,1.052c0,0.959-0.351,1.733-1.048,2.313c-0.699,0.583-1.633,0.875-2.8,0.875
		c-0.615,0-1.146-0.054-1.593-0.167c-0.451-0.111-0.833-0.277-1.145-0.504V94.346L135.41,94.346z M122.122,94.833
		c0.064-0.654,0.111-1.358,0.145-2.107c0.032-0.752,0.047-1.658,0.047-2.72c0-1.002-0.013-1.893-0.045-2.677
		c-0.034-0.785-0.083-1.513-0.147-2.186c0.142,0.017,0.284,0.032,0.424,0.042c0.139,0.006,0.273,0.012,0.397,0.012
		c0.052,0,0.386-0.006,0.992-0.026c0.604-0.017,1.188-0.027,1.739-0.027c1.242,0,2.167,0.2,2.776,0.601
		c0.611,0.403,0.913,1.012,0.913,1.833c0,0.644-0.208,1.176-0.625,1.59c-0.416,0.415-1.036,0.715-1.857,0.893l3.45,4.772
		c-0.245-0.022-0.482-0.039-0.71-0.052c-0.226-0.013-0.447-0.018-0.656-0.018c-0.202,0-0.419,0.004-0.643,0.018
		c-0.223,0.01-0.462,0.03-0.717,0.052c-0.442-0.732-0.922-1.482-1.436-2.248c-0.513-0.765-1.064-1.553-1.645-2.359v1.916
		c0,0.412,0.01,0.838,0.03,1.281c0.02,0.442,0.049,0.915,0.09,1.41c-0.219-0.022-0.435-0.039-0.637-0.052
		c-0.204-0.013-0.405-0.018-0.6-0.018c-0.189,0-0.39,0.004-0.598,0.018C122.599,94.79,122.368,94.811,122.122,94.833 M124.509,89.79
		h0.059c0.843,0,1.454-0.165,1.835-0.497c0.381-0.332,0.574-0.858,0.574-1.585c0-0.605-0.167-1.052-0.502-1.332
		c-0.334-0.281-0.863-0.423-1.585-0.423c-0.035,0-0.09,0.003-0.161,0.006c-0.071,0.006-0.127,0.008-0.168,0.008
		c-0.022,0.289-0.035,0.58-0.04,0.867c-0.009,0.287-0.012,0.572-0.012,0.848V89.79L124.509,89.79z M109.875,94.833
		c0.063-0.495,0.108-1.067,0.137-1.709c0.027-0.644,0.042-1.685,0.042-3.117v-0.713c0-1.067-0.015-1.907-0.042-2.51
		c-0.029-0.603-0.074-1.148-0.137-1.627c0.478,0.019,0.97,0.035,1.478,0.041c0.509,0.009,1.043,0.016,1.595,0.016
		c0.557,0,1.071-0.006,1.53-0.016c0.461-0.006,0.898-0.022,1.307-0.041c-0.023,0.155-0.042,0.28-0.047,0.366
		c-0.009,0.088-0.011,0.169-0.011,0.244c0,0.072,0.002,0.15,0.01,0.232c0.006,0.081,0.025,0.203,0.048,0.362
		c-0.763-0.045-1.426-0.081-1.983-0.106c-0.558-0.025-1.045-0.041-1.459-0.046c-0.02,0.171-0.034,0.355-0.039,0.547
		c-0.009,0.191-0.012,0.48-0.012,0.858v0.675l0.003,0.962c0.327-0.007,0.881-0.024,1.66-0.048c0.781-0.026,1.373-0.048,1.772-0.063
		c-0.026,0.142-0.042,0.257-0.051,0.343c-0.009,0.083-0.012,0.171-0.012,0.252c0,0.126,0.019,0.315,0.054,0.567
		c0.004,0.018,0.009,0.033,0.009,0.04c-0.938-0.05-1.656-0.083-2.147-0.104c-0.49-0.02-0.921-0.026-1.288-0.026v1.703
		c0,0.606,0.003,1.035,0.013,1.278c0.009,0.242,0.026,0.447,0.047,0.613c0.468-0.012,0.989-0.039,1.558-0.072
		c0.57-0.032,1.197-0.08,1.875-0.136c-0.016,0.095-0.028,0.187-0.034,0.276c-0.008,0.088-0.011,0.183-0.011,0.282
		c0,0.092,0.008,0.222,0.022,0.381c0.016,0.158,0.023,0.257,0.023,0.294c-1.023-0.027-1.808-0.045-2.357-0.054
		c-0.55-0.012-0.993-0.016-1.332-0.016c-0.458,0-0.868,0.004-1.222,0.018C110.517,94.79,110.183,94.811,109.875,94.833
		 M98.937,94.826c-0.404-1.061-0.969-2.442-1.684-4.143c-0.716-1.701-1.52-3.545-2.402-5.528c0.199,0.019,0.404,0.035,0.616,0.041
		c0.209,0.009,0.443,0.016,0.685,0.016c0.238,0,0.466-0.006,0.677-0.016c0.211-0.006,0.417-0.022,0.612-0.041
		c0.321,0.861,0.708,1.864,1.155,3.001c0.445,1.141,0.975,2.475,1.584,4c0.487-1.041,0.968-2.147,1.444-3.314
		c0.474-1.166,0.942-2.395,1.406-3.687c0.115,0.019,0.228,0.035,0.343,0.041c0.115,0.009,0.241,0.016,0.372,0.016
		c0.143,0,0.276-0.006,0.397-0.016c0.121-0.006,0.238-0.022,0.348-0.041c-0.784,1.585-1.533,3.184-2.242,4.797
		c-0.711,1.611-1.387,3.238-2.025,4.874c-0.115-0.021-0.224-0.039-0.332-0.046c-0.108-0.013-0.211-0.018-0.311-0.018
		c-0.096,0-0.197,0.004-0.304,0.018C99.169,94.79,99.057,94.806,98.937,94.826 M86.643,94.833c0.052-0.623,0.095-1.294,0.125-2.01
		c0.026-0.721,0.04-1.661,0.04-2.816c0-1.12-0.014-2.061-0.04-2.818c-0.03-0.759-0.072-1.438-0.125-2.032
		c0.219,0.029,0.439,0.052,0.661,0.065c0.221,0.015,0.445,0.025,0.668,0.025c0.224,0,0.445-0.01,0.665-0.025
		c0.219-0.013,0.436-0.036,0.654-0.065c-0.06,0.604-0.104,1.288-0.13,2.047c-0.029,0.761-0.042,1.695-0.042,2.803
		c0,1.203,0.013,2.162,0.039,2.871c0.029,0.714,0.071,1.37,0.123,1.956c-0.241-0.022-0.473-0.039-0.691-0.052
		c-0.215-0.013-0.421-0.018-0.617-0.018c-0.205,0-0.417,0.004-0.632,0.018C87.125,94.79,86.89,94.811,86.643,94.833 M70.594,94.833
		c0.047-0.676,0.089-1.409,0.118-2.191c0.031-0.784,0.044-1.637,0.044-2.554c0-0.866-0.013-1.714-0.044-2.539
		c-0.029-0.823-0.074-1.62-0.127-2.386c0.122,0.014,0.253,0.027,0.388,0.033c0.137,0.009,0.284,0.016,0.442,0.016
		c0.154,0,0.301-0.005,0.433-0.012c0.137-0.01,0.268-0.023,0.391-0.037c1.042,1.078,2.098,2.157,3.163,3.242
		c1.063,1.081,2.142,2.167,3.229,3.253v-1.669c0-0.306-0.004-0.908-0.014-1.794c-0.009-0.892-0.025-1.904-0.046-3.032
		c0.093,0.014,0.196,0.027,0.299,0.033c0.103,0.009,0.216,0.016,0.327,0.016c0.131,0,0.25-0.006,0.356-0.016
		c0.108-0.006,0.209-0.02,0.306-0.033c-0.044,0.401-0.079,1.021-0.093,1.856c-0.019,0.836-0.028,2.184-0.028,4.044v0.782
		c0,0.752,0.009,1.356,0.028,1.797c0.014,0.443,0.049,0.838,0.093,1.19c-0.121-0.022-0.235-0.039-0.341-0.052
		c-0.108-0.013-0.215-0.018-0.32-0.018c-0.099,0-0.204,0.004-0.314,0.018c-0.112,0.01-0.233,0.03-0.358,0.052
		c-0.949-1.006-1.972-2.06-3.059-3.165c-1.086-1.104-2.294-2.31-3.622-3.621v4.138c0,0.17,0.006,0.497,0.015,0.979
		c0.01,0.487,0.026,1.044,0.046,1.668c-0.13-0.022-0.249-0.039-0.353-0.052s-0.207-0.018-0.307-0.018
		c-0.095,0-0.198,0.004-0.301,0.018C70.833,94.79,70.716,94.811,70.594,94.833 M50.039,80.001c0.286,0.028,0.594,0.05,0.921,0.062
		c0.326,0.016,0.674,0.023,1.035,0.023c0.357,0,0.69-0.008,0.991-0.021c0.305-0.014,0.598-0.036,0.885-0.064
		c-0.121,1.129-0.209,2.336-0.262,3.609c-0.055,1.274-0.084,2.683-0.084,4.218c0,1.242,0.036,2.122,0.104,2.64
		c0.07,0.519,0.188,0.976,0.351,1.368c0.245,0.596,0.667,1.06,1.26,1.383c0.594,0.325,1.315,0.489,2.161,0.489
		c0.816,0,1.538-0.141,2.159-0.413c0.618-0.277,1.111-0.682,1.475-1.206c0.297-0.435,0.507-1.005,0.631-1.701
		c0.121-0.697,0.184-1.839,0.184-3.425c0-1.324-0.022-2.564-0.066-3.718c-0.043-1.153-0.114-2.238-0.199-3.246
		c0.166,0.028,0.349,0.05,0.538,0.062c0.19,0.016,0.388,0.023,0.596,0.023c0.22,0,0.429-0.008,0.617-0.021
		c0.191-0.014,0.367-0.036,0.521-0.064c-0.066,0.98-0.119,1.864-0.149,2.646c-0.037,0.782-0.052,1.459-0.052,2.034
		c0,0.336,0.008,0.861,0.023,1.568c0.014,0.707,0.024,1.25,0.024,1.622c0,1.408-0.112,2.503-0.325,3.281
		c-0.215,0.777-0.574,1.436-1.071,1.967c-0.578,0.63-1.319,1.104-2.211,1.414c-0.895,0.311-1.954,0.469-3.17,0.469
		c-1.336,0-2.492-0.175-3.464-0.525c-0.974-0.351-1.706-0.854-2.195-1.504c-0.367-0.476-0.624-1.098-0.775-1.862
		c-0.148-0.764-0.228-1.975-0.228-3.629V85.59c0-1.353-0.02-2.446-0.053-3.279C50.167,81.479,50.111,80.709,50.039,80.001"/>
	<path fill="#FFFFFF" d="M224.285,0.021C224.026,0.011,223.654,0,223.185,0c-5.214,0-9.385,2.217-12.518,6.653
		c-3.083,4.355-4.692,10.251-4.82,17.671c0.003,0.002,0.004,0.006,0.008,0.008c-0.007,0.232-0.015,0.465-0.016,0.702
		c-0.257,0.02-0.678,0.065-1.215,0.089c-0.539,0.022-0.946,0.033-1.203,0.033c-0.687,0-1.836-0.055-3.421-0.164v3.314
		c0.548-0.041,1.158-0.08,1.819-0.099c0.794-0.022,2.091-0.044,3.844-0.044v0.433v10.044c0,7.983-0.057,13.881-0.164,17.69
		c-0.093,3.806-0.257,6.7-0.455,8.668c0.724-0.133,1.437-0.258,2.092-0.327c0.657-0.066,1.274-0.101,1.861-0.101
		c0.606,0,1.26,0.045,1.915,0.125c0.656,0.078,1.344,0.191,2.044,0.303c-0.255-2.926-0.453-7.351-0.548-13.251
		c-0.093-5.828-0.15-13.698-0.152-23.584c0.515,0.022,1.275,0.068,2.233,0.09c3.343,0.055,6.801,0.076,7.994,0.098l0.02-1.138
		l0.02-1.479l0.021-0.728c-1.31,0.057-3.614,0.093-4.385,0.117c-0.771,0.022-1.496,0.033-2.126,0.033
		c-0.41,0-1.076-0.024-1.964-0.047c-0.888-0.02-1.566-0.032-2.035-0.032c-0.028-0.297,0.008-0.263-0.017-0.552
		c-0.203-2.232-0.373-4.293-0.497-6.153c-0.116-1.912-0.187-3.422-0.187-4.48c0-2.701,0.642-4.741,1.916-6.079
		c1.264-1.341,3.182-2.018,5.73-2.018c0.934,0,1.834,0.101,2.699,0.281c0.867,0.181,1.685,0.44,2.433,0.778L225,0.089
		C224.788,0.066,224.541,0.033,224.285,0.021"/>
</g>
</svg>
